<?xml version="1.0" standalone="no"?>
<!DOCTYPE svg PUBLIC "-//W3C//DTD SVG 20010904//EN"
 "http://www.w3.org/TR/2001/REC-SVG-20010904/DTD/svg10.dtd">
<svg version="1.0" xmlns="http://www.w3.org/2000/svg"
 width="112.000000pt" height="112.000000pt" viewBox="0 0 112.000000 112.000000"
 preserveAspectRatio="xMidYMid meet">
<metadata>
Created by potrace 1.14, written by Peter Selinger 2001-2017
</metadata>
<g transform="translate(0.000000,112.000000) scale(0.100000,-0.100000)"
fill="#000000" stroke="none">
<path d="M565 1010 c-3 -5 -13 -6 -22 -3 -14 5 -15 1 -10 -30 6 -39 -7 -51
-18 -17 -8 25 -41 45 -50 30 -3 -5 -4 -14 0 -19 3 -5 1 -12 -5 -16 -5 -3 -10
1 -10 9 0 9 -4 16 -10 16 -5 0 -10 -4 -10 -10 0 -18 -18 -11 -25 9 -12 38 -30
30 -33 -14 -3 -46 10 -64 32 -46 13 11 26 5 26 -11 0 -5 -5 -6 -10 -3 -19 12
-24 -27 -5 -41 10 -8 16 -14 12 -14 -3 0 5 -11 18 -25 39 -38 37 -81 -6 -139
-16 -22 -29 -46 -29 -54 0 -25 -31 8 -51 53 -31 71 -86 104 -130 79 -31 -17
-39 -17 -39 -1 0 13 57 41 75 37 6 -1 20 -3 32 -4 11 0 19 -4 16 -8 -2 -5 3
-8 11 -8 8 0 20 -9 26 -20 6 -11 21 -20 33 -20 20 0 18 4 -15 34 -46 41 -51
59 -6 21 21 -18 38 -25 52 -21 12 3 24 6 28 6 17 0 -7 41 -28 46 -17 4 -24 13
-24 30 0 21 -3 23 -18 15 -14 -8 -23 -5 -36 10 -16 20 -18 20 -36 4 -18 -17
-19 -17 -15 4 5 26 -6 27 -22 2 -10 -15 -20 -19 -46 -14 -23 3 -37 0 -46 -11
-12 -14 -10 -16 10 -16 22 0 22 -1 4 -14 -12 -8 -16 -19 -11 -31 5 -14 4 -16
-7 -7 -17 14 -28 6 -20 -14 4 -12 0 -14 -20 -9 -38 10 -50 -2 -31 -30 14 -22
14 -24 -5 -30 -25 -8 -50 -47 -29 -44 7 1 27 1 43 -1 26 -1 27 -3 10 -9 -11
-5 -26 -6 -33 -4 -15 6 -16 -9 0 -25 9 -9 6 -17 -12 -37 -19 -21 -21 -25 -7
-25 9 0 17 -4 17 -10 0 -17 26 -11 46 11 l19 21 6 -24 c6 -22 6 -22 14 6 5 18
4 36 -4 47 -15 25 -14 40 3 33 9 -3 17 3 21 15 3 12 11 21 16 21 6 0 8 -4 4
-9 -10 -17 17 -24 32 -8 24 24 9 50 -25 43 l-27 -6 24 20 c44 38 83 20 116
-53 31 -69 56 -95 142 -151 98 -63 122 -102 99 -161 -5 -13 -16 -6 -57 38 -28
31 -56 65 -63 78 -17 34 -57 58 -106 64 l-45 5 37 -13 c53 -18 87 -48 90 -81
3 -28 0 -30 -57 -46 -33 -9 -64 -15 -70 -15 -36 4 -75 19 -94 36 -25 23 -30 4
-6 -27 19 -26 19 -32 -5 -39 -11 -3 -20 -13 -20 -21 0 -8 5 -12 10 -9 6 3 10
1 10 -4 0 -21 20 -10 26 14 7 29 8 29 33 13 18 -11 18 -12 -3 -30 l-21 -19 25
7 c23 6 24 6 10 -11 -14 -17 -13 -18 6 -13 12 3 28 1 37 -3 10 -6 21 -4 31 7
21 21 20 34 -3 34 -18 0 -48 26 -40 34 2 2 22 7 44 11 105 18 149 4 179 -58
21 -45 20 -93 -2 -136 -24 -49 -58 -70 -127 -80 -43 -6 15 -9 205 -9 156 0
244 4 214 8 -173 25 -242 113 -161 203 36 41 64 48 144 37 58 -7 120 11 107
31 -4 7 -3 9 3 6 6 -4 22 16 36 46 14 28 26 44 26 35 1 -21 12 -23 29 -6 9 9
12 8 12 -5 0 -11 -8 -17 -24 -17 -14 0 -28 -4 -31 -10 -3 -6 3 -10 14 -10 11
0 23 -5 26 -10 4 -7 -2 -9 -18 -5 -37 10 -42 -11 -13 -46 15 -17 24 -35 20
-40 -3 -5 -1 -9 5 -9 11 0 27 39 22 55 -1 6 3 4 10 -2 7 -7 21 -13 31 -13 20
0 24 25 6 36 -8 5 -6 11 6 20 10 7 15 17 11 23 -3 6 -1 11 4 11 18 0 12 27 -6
35 -16 6 -16 8 4 25 24 19 21 30 -9 30 -10 0 -18 5 -18 10 0 13 41 29 58 23
21 -8 13 15 -11 33 -22 17 -23 18 -5 36 22 22 14 41 -13 33 -13 -4 -19 -2 -19
9 0 9 -7 16 -16 16 -13 0 -14 3 -5 14 13 16 23 76 12 76 -4 0 -13 -6 -20 -12
-12 -11 -13 -10 -7 6 5 16 2 18 -24 14 -24 -4 -30 -1 -25 10 5 15 3 15 -72 -5
-14 -3 -23 -1 -23 6 0 6 10 11 23 11 12 0 28 9 35 21 12 18 11 21 -8 26 -19 5
-20 7 -5 23 15 16 14 18 -1 24 -9 4 -25 4 -34 1 -13 -4 -19 2 -23 25 -8 39
-33 39 -42 0 -7 -31 7 -61 27 -57 24 5 26 -103 3 -116 -9 -4 -13 -12 -10 -18
8 -12 48 -12 61 0 11 11 64 2 64 -11 0 -5 -4 -6 -10 -3 -5 3 -26 3 -45 -1 -26
-4 -33 -10 -26 -18 6 -7 6 -17 0 -26 -8 -13 -12 -11 -29 10 -14 19 -20 21 -20
9 0 -9 9 -28 20 -42 11 -14 20 -32 20 -41 0 -26 -43 -46 -110 -52 -61 -5 -118
-25 -132 -48 -11 -17 -40 18 -40 48 0 32 43 91 82 111 26 14 29 13 28 -3 0 -9
3 -25 7 -34 5 -13 1 -19 -19 -24 -56 -14 -12 -40 49 -28 19 3 35 10 35 15 0 6
9 5 20 -1 14 -8 26 -8 40 0 23 12 27 40 6 40 -8 0 -23 14 -34 32 -20 31 -20
31 -33 10 -8 -12 -20 -22 -28 -22 -11 0 -10 4 3 19 17 18 17 19 0 23 -13 2 -7
10 24 30 47 31 76 79 67 109 -4 10 -10 17 -15 14 -5 -3 -10 1 -13 7 -3 10 -10
8 -25 -5 -12 -11 -26 -16 -33 -11 -7 4 -18 -1 -26 -12 -12 -16 -15 -17 -24 -4
-8 13 -11 13 -19 -2 -6 -9 -17 -15 -25 -12 -15 6 -19 -4 -16 -37 1 -9 -5 -22
-14 -29 -24 -20 -18 -28 19 -25 54 5 80 23 78 55 0 3 19 5 43 5 59 0 44 -16
-65 -68 -47 -23 -88 -43 -91 -44 -4 -2 -11 10 -17 26 -9 25 -6 38 15 83 15 29
35 64 45 77 10 13 18 32 18 42 0 10 5 21 11 25 7 4 10 -4 7 -22 -2 -22 2 -30
16 -32 12 -3 16 0 11 8 -6 9 0 10 23 6 21 -5 34 -2 46 9 24 24 20 47 -6 43
-18 -2 -24 3 -26 20 -3 20 -8 23 -27 18 -18 -5 -27 -1 -35 14 -13 25 -30 26
-31 3 0 -12 -5 -8 -13 11 -11 25 -14 26 -20 10 -7 -18 -8 -18 -20 -1 -15 19
-32 22 -41 7z m92 -118 c-6 -15 -26 -45 -43 -67 -49 -63 -62 -95 -58 -146 2
-26 4 -51 6 -55 1 -5 -4 -25 -10 -45 -14 -41 -31 -43 -74 -6 -45 37 -44 60 2
109 48 51 100 150 93 177 -2 10 -16 24 -30 30 -14 7 -24 13 -22 14 2 1 14 11
27 22 l23 19 -6 -27 c-4 -15 -3 -27 1 -26 5 1 17 -1 27 -6 10 -4 23 -2 32 5
17 14 20 40 4 40 -5 0 -7 5 -4 11 5 7 13 5 25 -6 16 -14 17 -21 7 -43z m-186
-16 c-8 -10 -9 -16 -1 -21 14 -9 30 3 30 22 0 10 6 13 16 9 9 -3 19 -6 24 -6
23 0 20 -44 -6 -83 l-28 -42 -13 32 c-7 18 -22 37 -33 43 -26 14 -24 60 3 60
16 0 17 -3 8 -14z m523 -191 c3 -8 1 -15 -3 -15 -5 0 -11 7 -15 15 -3 8 -1 15
3 15 5 0 11 -7 15 -15z m-36 -25 c10 -21 10 -34 3 -47 -9 -15 -10 -13 -11 15
0 18 -4 31 -9 28 -10 -7 -23 19 -14 28 11 11 18 6 31 -24z m-9 -101 c1 -4 -17
-16 -39 -27 -34 -17 -46 -18 -70 -9 -17 6 -30 15 -30 19 0 6 31 19 59 24 42 8
61 16 62 27 0 11 17 -19 18 -34z m51 21 c0 -6 -8 -22 -17 -37 -16 -24 -16 -26
0 -38 21 -15 22 -26 2 -19 -10 4 -28 -7 -48 -30 -31 -34 -50 -46 -44 -28 1 4
-10 21 -25 37 -23 25 -28 26 -34 12 -5 -15 -8 -15 -21 -1 -20 19 -37 13 -41
-15 -2 -12 -10 -25 -18 -28 -21 -8 -17 -17 17 -37 30 -18 30 -18 36 2 5 21 33
39 33 22 0 -6 -4 -10 -10 -10 -5 0 -7 -7 -4 -15 4 -8 13 -15 21 -15 8 0 11 5
8 10 -3 6 3 10 14 10 29 0 16 -28 -17 -37 -14 -3 -44 -1 -65 4 -22 6 -63 10
-92 10 l-51 -2 1 40 c4 96 38 115 167 94 73 -12 82 -11 113 5 19 11 38 31 44
47 10 28 31 40 31 19z"/>
<path d="M335 911 c-3 -6 3 -15 14 -21 21 -11 37 2 26 20 -8 13 -32 13 -40 1z"/>
<path d="M260 656 c0 -10 -9 -16 -26 -16 -21 0 -24 -4 -19 -20 4 -11 2 -20 -4
-20 -20 0 -11 -20 14 -32 14 -6 25 -17 25 -24 0 -27 21 -24 26 4 5 26 10 30
36 28 18 0 33 5 36 13 3 8 0 11 -7 7 -6 -4 -11 -1 -11 8 0 9 -6 16 -14 16 -8
0 -16 10 -18 22 -3 26 -38 38 -38 14z"/>
<path d="M180 545 c-9 -11 -17 -12 -30 -5 -20 11 -36 -2 -25 -20 3 -5 -1 -10
-9 -10 -8 0 -20 9 -26 20 -13 25 -38 25 -69 1 l-24 -18 29 -7 c29 -8 29 -8 8
-25 -27 -22 -26 -51 2 -61 17 -7 21 -14 17 -31 -5 -18 -3 -20 15 -14 17 5 21
3 16 -9 -9 -23 12 -19 29 5 l15 21 7 -21 c9 -29 21 -26 29 5 4 16 2 32 -6 42
-9 10 -10 16 -2 19 6 2 9 15 6 28 -3 18 0 25 12 25 9 0 16 -6 16 -14 0 -22 40
-7 50 18 10 26 4 37 -15 29 -9 -3 -15 1 -15 10 0 23 -16 29 -30 12z"/>
<path d="M257 485 c-29 -28 -37 -61 -12 -51 8 3 22 9 31 13 13 5 15 2 10 -14
-6 -18 -3 -20 26 -18 18 2 36 4 40 4 15 2 38 49 32 65 -6 16 -8 16 -25 0 -11
-9 -20 -14 -20 -11 -1 4 -3 12 -4 17 -1 6 -3 13 -4 16 0 4 -8 1 -16 -6 -10 -9
-15 -9 -15 -1 0 17 -13 13 -43 -14z"/>
<path d="M901 349 c-25 -27 -27 -41 -6 -33 8 4 15 1 15 -5 0 -17 18 -13 29 7
6 12 5 23 -4 35 -12 17 -14 17 -34 -4z"/>
</g>
</svg>
